<svg xmlns="http://www.w3.org/2000/svg" xmlns:xlink="http://www.w3.org/1999/xlink" viewBox="0 0 10 30" version="1.1" x="0px" y="0px"><title>33 -Sword- (medieval, antique, old)</title><desc>Created with Sketch.</desc><g stroke="none" stroke-width="1" fill="none" fill-rule="evenodd"><g fill="#000000"><path d="M9.6348,16.772 C10.0618,16.421 10.1228,15.791 9.7728,15.364 C9.4218,14.939 8.7918,14.876 8.3648,15.227 C8.2648,15.31 8.1378,15.383 7.9998,15.452 L7.9998,5 C7.9998,4.844 7.9638,4.691 7.8948,4.552 L5.8948,0.552 C5.5548,-0.125 4.4458,-0.125 4.1058,0.552 L2.1058,4.552 C2.0358,4.691 1.9998,4.844 1.9998,5 L1.9998,15.471 C1.8718,15.403 1.7538,15.331 1.6628,15.251 C1.2508,14.886 0.6188,14.922 0.2508,15.337 C-0.1152,15.751 -0.0762,16.382 0.3368,16.749 C1.1198,17.441 2.5048,17.844 3.9998,17.967 L3.9998,22 C3.4478,22 2.9998,22.447 2.9998,23 C2.9998,23.552 3.4478,24 3.9998,24 L5.9998,24 C6.5528,24 6.9998,23.552 6.9998,23 C6.9998,22.447 6.5528,22 5.9998,22 L5.9998,17.961 C7.4578,17.834 8.8208,17.441 9.6348,16.772"/></g></g><text x="0" y="39" fill="#000000" font-size="5px" font-weight="bold" font-family="'Helvetica Neue', Helvetica, Arial-Unicode, Arial, Sans-serif">Created by Ben Davis</text><text x="0" y="44" fill="#000000" font-size="5px" font-weight="bold" font-family="'Helvetica Neue', Helvetica, Arial-Unicode, Arial, Sans-serif">from the Noun Project</text></svg>